<?xml version="1.0" encoding="utf-8"?>
<!-- Generator: Adobe Illustrator 24.0.0, SVG Export Plug-In . SVG Version: 6.00 Build 0)  -->
<svg version="1.1" id="Layer_1" xmlns="http://www.w3.org/2000/svg" xmlns:xlink="http://www.w3.org/1999/xlink" x="0px" y="0px"
	 viewBox="0 0 1000 1000" style="enable-background:new 0 0 1000 1000;" xml:space="preserve">
<style type="text/css">
	.st0{fill:#0095FF;}
</style>
<g>
	<path class="st0" d="M700.1,161.7v358.2c14.2-2.3,28.7-3.5,43.5-3.5c8.3,0,16.5,0.4,24.6,1.1V127.7c0-18.8-15.3-34.1-34.1-34.1
		H621.3c15.8,18.6,25.9,42.2,27.6,68.1H700.1z M504.9,911H115.4V161.7h51.2c1.7-25.9,11.8-49.5,27.6-68.1H81.3
		c-18.8,0-34,15.3-34,34.1V945c0,18.9,15.3,34.1,34,34.1h474.6C535.5,959.3,518.2,936.3,504.9,911z M283.7,250.2h248
		c42.3,0,76.7-34.4,76.7-76.6v-4.1c0-2.6-0.1-5.2-0.4-7.8c-3.6-35.3-31.1-63.4-66-68.1c-3.4-0.5-6.8-0.8-10.2-0.8h-33.2v-6.2
		c0-42.3-34.4-76.7-76.7-76.7h-28.3C351.3,10,317,44.4,317,86.7v6.2h-33.2c-3.5,0-6.9,0.3-10.2,0.8c-34.9,4.7-62.5,32.9-66,68.1
		c-0.3,2.5-0.4,5.2-0.4,7.8v4.1C207.1,215.8,241.5,250.2,283.7,250.2z M952.7,801.5v-53.8l-63.9-10.5c-3.8-15.1-9.7-29.4-17.6-42.4
		l37.3-53.2l-38-38L818,641.4c-13.1-7.9-27.4-14-42.7-17.8L764.2,560h-53.8l-10.3,63.5c-15.3,3.7-29.7,9.7-42.8,17.6L605,603.7
		l-38,38l36.8,52.6c-7.9,13.2-14,27.5-17.8,42.9l-63.2,10.5v53.8l63.1,11.2c3.8,15.4,9.9,29.7,17.9,42.9l-37.3,52.1l38,38l52.7-36.9
		c13.2,7.9,27.5,13.9,42.8,17.7l10.5,63.5h53.8l11.3-63.7c15.2-3.8,29.5-9.9,42.6-17.8l53,37.2l38-38l-37.9-52.6
		c7.9-13.1,13.8-27.3,17.6-42.5L952.7,801.5z M737.8,850c-41.4,0-75-33.6-75-75s33.6-74.9,75-74.9s75,33.6,75,74.9
		C812.8,816.4,779.2,850,737.8,850z"/>
	<path class="st0" d="M283.8,510.4h341.8v59.8H283.8V510.4z"/>
	<path class="st0" d="M177.2,644.9h65v59.8h-65V644.9L177.2,644.9z"/>
	<path class="st0" d="M283.8,371.1h341.8v59.8H283.8V371.1z"/>
	<path class="st0" d="M177.2,510.4h65v59.8h-65V510.4L177.2,510.4z"/>
	<path class="st0" d="M283.8,644.9h245v59.8h-245V644.9z"/>
	<path class="st0" d="M177.2,371.1h65v59.8h-65V371.1L177.2,371.1z"/>
</g>
</svg>
